<svg  xmlns="http://www.w3.org/2000/svg"
              width="29"
              height="28"
              viewBox="0 0 29 28"
              fill="none">

<path d="M65.0281 40.6855C64.1735 42.8538 63.0147 44.9012 61.5835 46.7718V46.58L62.3586 41.2338C62.4168 40.8781 62.6111 40.5557 62.904 40.3291C63.0486 40.2188 63.2154 40.1381 63.394 40.0919C63.5727 40.0458 63.7593 40.0353 63.9424 40.061C64.1255 40.0867 64.301 40.1481 64.4582 40.2414C64.6154 40.3347 64.7507 40.4578 64.8559 40.6032L65.0281 40.6855ZM42.8394 58.0124C42.8614 55.7032 42.1523 53.4413 40.8052 51.5236C39.4581 49.6058 37.5357 48.1217 35.2901 47.2654C31.9371 45.9493 29.1043 43.6563 27.1953 40.7129C24.8173 37.0055 24.0388 32.5611 25.0241 28.3163C26.0093 24.0715 28.6814 20.3579 32.4771 17.9576L30.9844 15.6546C27.4105 17.8657 24.6737 21.1139 23.1766 24.9213C21.2626 29.6387 21.3527 34.8833 23.4277 39.5382C25.5026 44.1932 29.3984 47.8904 34.2853 49.8424C36.0015 50.4971 37.4692 51.6341 38.4943 53.1027C39.5194 54.5713 40.0535 56.3023 40.0263 58.0672L42.8394 58.0124ZM42.8394 60.7541H39.969V64.8939H42.8394V60.7541ZM60.9808 47.5395C59.3585 49.5314 57.4217 51.2702 55.2399 52.6937C54.0673 53.431 53.1012 54.431 52.4258 55.6065C51.7504 56.782 51.3861 58.0973 51.3647 59.438V64.9212C51.3722 65.454 51.2698 65.9832 51.0633 66.4782C50.8568 66.9733 50.5502 67.4246 50.161 67.8065C49.7719 68.1884 49.3077 68.4934 48.7952 68.7039C48.2826 68.9145 47.7318 69.0264 47.1739 69.0336H35.9502C35.3923 69.0264 34.8413 68.9145 34.3288 68.7039C33.8162 68.4934 33.3521 68.1884 32.9629 67.8065C32.5737 67.4246 32.2671 66.9733 32.0606 66.4782C31.8541 65.9832 31.7519 65.454 31.7595 64.9212V59.438C31.7413 58.1254 31.383 56.8376 30.7169 55.6895C30.0507 54.5414 29.0973 53.5687 27.9417 52.8582C24.758 50.8413 22.0786 48.1794 20.0942 45.0614C18.1097 41.9435 16.8689 38.4462 16.4598 34.8184C15.6443 28.3806 17.515 21.8949 21.6674 16.7642C25.8198 11.6336 31.92 8.27049 38.6485 7.40237C39.9383 7.3065 41.234 7.3065 42.5237 7.40237L41.7199 7.97816C41.4197 8.20544 41.2223 8.53432 41.1689 8.89666C41.1155 9.259 41.2101 9.62695 41.4329 9.92459L44.7339 14.2289C44.8872 14.4582 44.9688 14.7246 44.9688 14.9967C44.9688 15.2687 44.8872 15.535 44.7339 15.7642C44.5941 15.9947 44.3858 16.1804 44.1354 16.2975C43.885 16.4147 43.6037 16.4582 43.3274 16.4224L37.8734 15.6546C37.5043 15.6079 37.1308 15.7028 36.8348 15.9187C36.5389 16.1345 36.3446 16.4536 36.2947 16.806L35.1179 25.0309C35.0597 25.3868 35.1506 25.7503 35.3709 26.0427C35.5911 26.3352 35.9229 26.5331 36.2947 26.5936L41.7486 27.3613C42.0241 27.4061 42.2799 27.5266 42.4847 27.7082C42.6894 27.8898 42.8342 28.1247 42.9013 28.3837C42.9683 28.6428 42.9546 28.9149 42.862 29.1667C42.7695 29.4185 42.602 29.639 42.3801 29.8012L37.9883 32.7896C37.6881 33.0169 37.4908 33.3458 37.4373 33.7081C37.3839 34.0705 37.4783 34.4386 37.7012 34.7363L42.7532 41.316C42.8584 41.4614 42.994 41.5847 43.1511 41.6779C43.3083 41.7712 43.4838 41.8326 43.6669 41.8583C43.85 41.884 44.0367 41.8735 44.2153 41.8274C44.3939 41.7813 44.5606 41.7006 44.7051 41.5903L49.1258 38.3552C49.2706 38.2478 49.4374 38.1703 49.6153 38.1278C49.7932 38.0853 49.9784 38.0787 50.1591 38.1084C50.3437 38.1316 50.5215 38.1903 50.6817 38.2809C50.8419 38.3715 50.9812 38.4921 51.0912 38.6356C51.2012 38.7791 51.2797 38.9425 51.3217 39.1157C51.3638 39.289 51.3685 39.4686 51.3359 39.6437L50.561 45.1269C50.511 45.4857 50.6088 45.8491 50.8336 46.1406C51.0585 46.432 51.3929 46.6289 51.7666 46.6896L60.091 47.841H60.292C60.549 47.812 60.79 47.7065 60.9808 47.5395ZM35.8355 75.8876V77.2584C35.8355 77.9855 36.138 78.683 36.6763 79.1971C37.2146 79.7113 37.9447 80 38.706 80H44.4469C45.2082 80 45.9383 79.7113 46.4766 79.1971C47.0149 78.683 47.3174 77.9855 47.3174 77.2584V75.8876H35.8355ZM27.2241 53.9548C26.3832 53.4278 25.5778 52.8511 24.8128 52.2277C24.3343 53.184 23.6584 54.0379 22.8257 54.7386C21.993 55.4392 21.0209 55.9719 19.9673 56.3048C18.9138 56.6377 17.8006 56.7638 16.6948 56.6756C15.5889 56.5875 14.5131 56.2868 13.5319 55.7918C11.8768 54.9969 10.5341 53.7133 9.70341 52.1318C8.87268 50.5503 8.59813 48.755 8.92044 47.0126C9.24276 45.2701 10.1449 43.6735 11.4927 42.4596C12.8406 41.2457 14.5623 40.4793 16.4023 40.2742C15.8874 38.7641 15.5128 37.2137 15.2828 35.6409L15.0533 36.765C14.9007 37.4662 14.4669 38.0826 13.8446 38.4822C13.2223 38.8818 12.461 39.033 11.7235 38.9034C11.362 38.8207 11.0209 38.6718 10.7189 38.4648L7.8484 36.5182L5.29364 39.0131L7.303 41.7548C7.73592 42.3513 7.90338 43.0874 7.76886 43.8018C7.63433 44.5161 7.2088 45.1504 6.58538 45.5655C6.28949 45.7823 5.9459 45.9323 5.58061 46.0042L2.07872 46.717V49.9796L5.58061 50.7197C6.31086 50.8834 6.94515 51.3135 7.3475 51.9181C7.74986 52.5228 7.88832 53.2538 7.73347 53.9548C7.681 54.3136 7.53282 54.6536 7.303 54.9419L5.29364 57.6835L7.8484 60.1783L10.7189 58.2318C11.3367 57.8438 12.0875 57.6985 12.8148 57.8262C13.5421 57.9539 14.1897 58.3447 14.6227 58.9172C14.8245 59.23 14.9701 59.5729 15.0533 59.9316L15.7709 63.3586H19.1006L19.8469 59.9316C19.9995 59.2304 20.4334 58.6141 21.0556 58.2144C21.6779 57.8148 22.4391 57.6635 23.1766 57.7931C23.5381 57.8758 23.8794 58.0249 24.1814 58.2318L27.0519 60.1783L30.0658 57.2447C29.4995 55.8371 28.4462 54.6569 27.0806 53.9L27.2241 53.9548ZM35.8355 73.146H47.0589V70.4044H35.8355V73.146ZM67.6976 24.0714C67.6581 22.4913 67.1314 20.9575 66.1836 19.6619C65.2357 18.3664 63.9088 17.3668 62.3689 16.7881C60.8291 16.2095 59.1446 16.0775 57.5266 16.4088C55.9086 16.7401 54.429 17.5199 53.2728 18.6506C52.1165 19.7813 51.3353 21.2126 51.0267 22.7653C50.7181 24.3181 50.8959 25.9234 51.5379 27.3801C52.18 28.8367 53.2577 30.08 54.6362 30.9545C56.0146 31.829 57.6324 32.2957 59.2872 32.2962C61.541 32.246 63.6844 31.3536 65.2569 29.8106C66.8295 28.2676 67.7058 26.1972 67.6976 24.0439V24.0714ZM80.5 24.2633L79.6962 29.7465L75.6202 29.1982C75.0759 29.118 74.5204 29.1446 73.9873 29.2766C73.4543 29.4086 72.9549 29.6431 72.52 29.9657C71.6216 30.6377 71.0324 31.6174 70.877 32.6971C70.7216 33.7769 71.0123 34.8721 71.6876 35.7506L74.1562 38.9583L69.6783 42.2482L67.2097 39.0406C66.8689 38.6012 66.4392 38.2316 65.9462 37.9538C65.4531 37.6759 64.9067 37.4954 64.3392 37.423C63.7866 37.3539 63.2252 37.3901 62.6873 37.5294C62.1494 37.6687 61.6456 37.9084 61.2053 38.2347C60.7649 38.561 60.3965 38.9673 60.1215 39.4303C59.8465 39.8933 59.6702 40.4037 59.6029 40.9321L59.0002 44.9075L53.4602 44.1399L54.0342 40.1371C54.1768 39.0623 53.8899 37.9756 53.2305 37.094C52.9095 36.6602 52.4995 36.2932 52.0255 36.0154C51.5515 35.7375 51.0232 35.5546 50.4729 35.4777C49.9226 35.4008 49.3616 35.4314 48.8241 35.5679C48.2866 35.7044 47.7838 35.9438 47.3461 36.2715L44.0737 38.6842L40.6866 34.2975L43.9875 31.8574C44.6479 31.3608 45.144 30.6926 45.4163 29.9331C45.6885 29.1736 45.7254 28.3552 45.5223 27.5762C45.3191 26.7972 44.8846 26.0909 44.2712 25.5421C43.6578 24.9933 42.8915 24.6253 42.0644 24.4825L37.9883 23.9343L38.792 18.4511L42.8394 19.0267C43.3902 19.1054 43.9519 19.0755 44.49 18.9387C45.0281 18.802 45.5312 18.5614 45.9682 18.2317C46.8646 17.5646 47.4533 16.5898 47.6087 15.5146C47.7642 14.4393 47.4743 13.3486 46.8007 12.4744L44.3607 9.26664L48.8386 5.9494L51.3074 9.18448C51.6458 9.62612 52.0748 9.99723 52.5683 10.2753C53.0618 10.5534 53.6095 10.7326 54.1778 10.8019C55.2959 10.9343 56.4235 10.6401 57.3157 9.983C58.2078 9.32593 58.7925 8.3592 58.9427 7.29276L59.5169 3.3174L65.0569 4.08513L64.4827 8.06032C64.3355 9.14404 64.6227 10.2408 65.2865 11.1309C65.9428 11.9551 66.9098 12.5024 67.982 12.656C69.0542 12.8096 70.1469 12.5576 71.0275 11.9535L74.2997 9.5409L77.687 13.9274L74.3859 16.34C73.7255 16.8366 73.2294 17.5049 72.9571 18.2644C72.6849 19.0239 72.6482 19.8423 72.8513 20.6213C73.0545 21.4002 73.4888 22.1066 74.1022 22.6554C74.7157 23.2042 75.4819 23.5722 76.3091 23.7149L80.5 24.2633ZM68.0995 53.9H77.9165V51.1584H68.0995V53.9ZM74.2137 67.3065L75.9933 65.1954L67.5829 58.3414L65.8032 60.4525L74.2137 67.3065ZM59.6891 71.7479H62.5596V62.1523H59.6891V71.7479ZM1.16015 26.3742L12.3838 23.6326L11.6947 20.891L0.5 23.6326L1.16015 26.3742ZM12.642 16.5594L14.2782 14.3113L4.46126 7.45725L2.85381 9.67794L12.642 16.5594ZM17.7228 11.6518L20.4211 10.9664L17.5506 0L14.6801 0.685401L17.7228 11.6518Z" fill="white"></path>
</svg>