 <svg
              xmlns="http://www.w3.org/2000/svg"
              width="29"
              height="28"
              viewBox="0 0 29 28"
              fill="none"
            >
              <path
                d="M14.5 0C6.76714 0 0.5 6.26714 0.5 14C0.5 21.7329 6.76714 28 14.5 28C22.2329 28 28.5 21.7329 28.5 14C28.5 6.26714 22.2314 0 14.5 0ZM19.4948 18.371C19.1647 17.8388 18.5424 17.0347 17.3864 16.0256C15.909 14.7343 15.2329 13.4998 14.7865 12.684C14.6672 12.4659 14.5131 12.1838 14.4069 12.0399C14.3008 12.1838 14.1467 12.4659 14.0274 12.684C13.581 13.5012 12.9049 14.7343 11.4275 16.0256C10.2715 17.0347 9.64915 17.8388 9.31907 18.371H6.70897C6.91836 17.6934 7.6076 16.216 9.86726 14.2414C11.0276 13.2279 11.538 12.2944 11.9481 11.5455C12.1996 11.086 12.4163 10.689 12.7318 10.3546C13.184 9.87183 13.7468 9.62754 14.4055 9.62754C15.0642 9.62754 15.6269 9.87183 16.0791 10.3546C16.3932 10.6905 16.6113 11.0875 16.8629 11.5455C17.273 12.2944 17.7833 13.2264 18.9437 14.2414C21.2034 16.216 21.8941 17.6934 22.102 18.371H19.4919H19.4948Z"
                fill="#5B7FB4"
              />
            </svg>