<svg width="238" height="55" viewBox="0 0 238 55" fill="none" xmlns="http://www.w3.org/2000/svg">
<g clipPath="url(#clip0_55_6049)">
<path d="M27.9198 0C12.487 0 0 12.2992 0 27.5C0 42.6575 12.487 55 27.9198 55C43.3527 55 55.8396 42.7008 55.8396 27.5C55.8396 12.2992 43.3087 0 27.9198 0ZM37.8566 36.0748C37.1971 35.0354 35.966 33.4331 33.6357 31.4843C30.6898 28.9291 29.3268 26.5472 28.4474 24.9016C28.2276 24.4685 27.9198 23.9055 27.7 23.6457C27.4801 23.9488 27.1724 24.4685 26.9525 24.9016C26.0732 26.5039 24.7101 28.9291 21.7643 31.4843C19.4779 33.4764 18.2028 35.0354 17.5433 36.0748H12.399C12.7948 34.7323 14.2017 31.8307 18.6865 27.9764C21.0168 25.9843 22.0281 24.1654 22.8195 22.6929C23.3032 21.7835 23.7428 21.0039 24.4024 20.3543C25.3257 19.4016 26.4249 18.9252 27.7439 18.9252C29.063 18.9252 30.1622 19.4016 31.0855 20.3543C31.7011 21.0039 32.1408 21.7835 32.6684 22.6929C33.5038 24.1654 34.5151 25.9843 36.8014 27.9764C41.2862 31.8307 42.6492 34.7323 43.0889 36.0748H37.8566Z" fill="white"/>
<path d="M78.8351 39.7559C77.7359 39.1929 76.9005 38.4134 76.2849 37.374C75.6694 36.3347 75.4056 35.1654 75.4056 33.8662V32.7835C75.4056 32.6536 75.4495 32.5669 75.5375 32.4803C75.6254 32.3937 75.7133 32.3504 75.8452 32.3504H80.1541C80.286 32.3504 80.374 32.3937 80.4619 32.4803C80.5498 32.5669 80.5938 32.6536 80.5938 32.7835V33.6063C80.5938 34.3858 80.8137 34.9921 81.2094 35.4685C81.6051 35.9449 82.0887 36.1614 82.7043 36.1614C83.3198 36.1614 83.8035 35.9449 84.1992 35.5118C84.5949 35.0788 84.8148 34.4725 84.8148 33.7795C84.8148 33.0433 84.551 32.3937 84.0673 31.874C83.5837 31.3543 82.6164 30.5748 81.1654 29.5354C79.9343 28.6693 78.923 27.8465 78.1316 27.1969C77.3402 26.504 76.6806 25.6811 76.153 24.6417C75.6254 23.6457 75.3176 22.4764 75.3176 21.1339C75.3176 19.0551 75.9772 17.3662 77.2962 16.1103C78.6152 14.8543 80.374 14.248 82.5284 14.248C84.7268 14.248 86.4856 14.8977 87.8046 16.1969C89.1236 17.4961 89.8271 19.2284 89.8271 21.3071V22.1732C89.8271 22.3032 89.7832 22.3898 89.6952 22.4764C89.6073 22.563 89.5194 22.6063 89.3875 22.6063H85.0786C84.9467 22.6063 84.8587 22.563 84.7708 22.4764C84.6829 22.3898 84.6389 22.3032 84.6389 22.1732V21.1772C84.6389 20.3977 84.463 19.7914 84.0673 19.3583C83.6716 18.9252 83.1879 18.6654 82.5724 18.6654C81.9568 18.6654 81.4732 18.8819 81.1214 19.315C80.7257 19.748 80.5498 20.3543 80.5498 21.0906C80.5498 21.8268 80.7697 22.4764 81.2533 23.0394C81.737 23.6024 82.6603 24.3819 84.0673 25.378C85.6062 26.504 86.7933 27.4134 87.5848 28.1063C88.3762 28.7992 88.9917 29.5788 89.4314 30.4449C89.8711 31.311 90.0909 32.3071 90.0909 33.4764C90.0909 35.6417 89.4314 37.374 88.0684 38.6299C86.7054 39.9291 84.9467 40.5354 82.7483 40.5354C81.2094 40.6221 79.9343 40.3189 78.8351 39.7559Z" fill="white"/>
<path d="M105.04 39.8859L104.425 36.3347C104.425 36.2048 104.337 36.1615 104.205 36.1615H99.4562C99.3243 36.1615 99.2363 36.2048 99.2363 36.3347L98.6208 39.8859C98.5768 40.1457 98.4449 40.2757 98.1371 40.2757H93.7403C93.4325 40.2757 93.3006 40.1024 93.3886 39.7993L98.8846 14.8977C98.9286 14.6379 99.1044 14.5079 99.3682 14.5079H104.425C104.688 14.5079 104.864 14.6379 104.908 14.8977L110.36 39.8426L110.404 39.9725C110.404 40.189 110.272 40.319 110.009 40.319H105.524C105.216 40.319 105.04 40.189 105.04 39.8859ZM100.116 32.1772H103.501C103.633 32.1772 103.677 32.1339 103.633 32.004L101.874 21.9568C101.83 21.8701 101.83 21.8268 101.743 21.8268C101.699 21.8268 101.655 21.8701 101.611 21.9568L99.9398 32.004C99.9838 32.0906 100.028 32.1772 100.116 32.1772Z" fill="white"/>
<path d="M114.933 40.189C114.845 40.1024 114.801 40.0158 114.801 39.8859V14.941C114.801 14.8111 114.845 14.7245 114.933 14.6379C115.021 14.5512 115.109 14.5079 115.241 14.5079H122.012C124.298 14.5079 126.101 15.1575 127.464 16.4568C128.827 17.756 129.53 19.4882 129.53 21.6536V33.1733C129.53 35.3386 128.827 37.0709 127.464 38.3701C126.101 39.6694 124.254 40.319 122.012 40.319H115.241C115.109 40.319 115.021 40.2757 114.933 40.189ZM120.253 35.8583L121.924 35.815C122.583 35.7717 123.155 35.5119 123.551 34.9489C123.99 34.4292 124.21 33.693 124.21 32.8268V22.0001C124.21 21.0473 123.99 20.3111 123.595 19.7914C123.155 19.2717 122.583 18.9686 121.88 18.9686H120.253C120.121 18.9686 120.077 19.0119 120.077 19.1418V35.6418C120.077 35.7717 120.121 35.8583 120.253 35.8583Z" fill="white"/>
<path d="M134.806 40.189C134.719 40.1024 134.675 40.0158 134.675 39.8859V14.941C134.675 14.8111 134.719 14.7245 134.806 14.6379C134.894 14.5512 134.982 14.5079 135.114 14.5079H141.885C144.172 14.5079 145.974 15.1575 147.337 16.4568C148.7 17.756 149.404 19.4882 149.404 21.6536V33.1733C149.404 35.3386 148.7 37.0709 147.337 38.3701C145.974 39.6694 144.128 40.319 141.885 40.319H135.114C134.982 40.319 134.894 40.2757 134.806 40.189ZM140.127 35.8583L141.797 35.815C142.457 35.7717 143.029 35.5119 143.424 34.9489C143.864 34.4292 144.084 33.693 144.084 32.8268V22.0001C144.084 21.0473 143.864 20.3111 143.468 19.7914C143.029 19.2717 142.457 18.9686 141.753 18.9686H140.127C139.995 18.9686 139.951 19.0119 139.951 19.1418V35.6418C139.951 35.7717 139.995 35.8583 140.127 35.8583Z" fill="white"/>
<path d="M154.592 40.189C154.504 40.1024 154.46 40.0158 154.46 39.8859V14.941C154.46 14.8111 154.504 14.7245 154.592 14.6379C154.68 14.5512 154.768 14.5079 154.9 14.5079H159.297C159.429 14.5079 159.517 14.5512 159.605 14.6379C159.693 14.7245 159.737 14.8111 159.737 14.941V35.6418C159.737 35.7717 159.781 35.815 159.913 35.815H167.783C167.915 35.815 168.003 35.8583 168.091 35.9449C168.179 36.0316 168.223 36.1182 168.223 36.2481V39.8426C168.223 39.9725 168.179 40.0591 168.091 40.1457C168.003 40.2323 167.915 40.2757 167.783 40.2757H154.9C154.768 40.319 154.68 40.2757 154.592 40.189Z" fill="white"/>
<path d="M186.425 18.8386C186.337 18.9253 186.249 18.9686 186.118 18.9686H178.291C178.159 18.9686 178.115 19.0119 178.115 19.1418V24.9882C178.115 25.1182 178.159 25.1615 178.291 25.1615H182.776C182.908 25.1615 182.996 25.2048 183.084 25.2914C183.172 25.378 183.216 25.4646 183.216 25.5945V29.189C183.216 29.319 183.172 29.4056 183.084 29.4922C182.996 29.5788 182.908 29.6221 182.776 29.6221H178.291C178.159 29.6221 178.115 29.6654 178.115 29.7953V35.6418C178.115 35.7717 178.159 35.815 178.291 35.815H186.118C186.249 35.815 186.337 35.8583 186.425 35.9449C186.513 36.0316 186.557 36.1182 186.557 36.2481V39.8426C186.557 39.9725 186.513 40.0591 186.425 40.1457C186.337 40.2323 186.249 40.2757 186.118 40.2757H173.279C173.147 40.2757 173.059 40.2323 172.971 40.1457C172.883 40.0591 172.839 39.9725 172.839 39.8426V14.941C172.839 14.8111 172.883 14.7245 172.971 14.6379C173.059 14.5512 173.147 14.5079 173.279 14.5079H186.118C186.249 14.5079 186.337 14.5512 186.425 14.6379C186.513 14.7245 186.557 14.8111 186.557 14.941V18.5355C186.557 18.6654 186.513 18.752 186.425 18.8386Z" fill="white"/>
<path d="M205.639 18.8386C205.551 18.9253 205.464 18.9686 205.332 18.9686H197.549C197.417 18.9686 197.373 19.0119 197.373 19.1418V24.9882C197.373 25.1182 197.417 25.1615 197.549 25.1615H201.99C202.122 25.1615 202.21 25.2048 202.298 25.2914C202.386 25.378 202.43 25.4646 202.43 25.5945V29.189C202.43 29.319 202.386 29.4056 202.298 29.4922C202.21 29.5788 202.122 29.6221 201.99 29.6221H197.549C197.417 29.6221 197.373 29.6654 197.373 29.7953V39.8426C197.373 39.9725 197.329 40.0591 197.241 40.1457C197.154 40.2323 197.066 40.2757 196.934 40.2757H192.537C192.405 40.2757 192.317 40.2323 192.229 40.1457C192.141 40.0591 192.097 39.9725 192.097 39.8426V14.941C192.097 14.8111 192.141 14.7245 192.229 14.6379C192.317 14.5512 192.405 14.5079 192.537 14.5079H205.332C205.464 14.5079 205.551 14.5512 205.639 14.6379C205.727 14.7245 205.771 14.8111 205.771 14.941V18.5355C205.771 18.6654 205.727 18.752 205.639 18.8386Z" fill="white"/>
<path d="M211.267 40.189C211.179 40.1024 211.135 40.0158 211.135 39.8859V14.941C211.135 14.8111 211.179 14.7245 211.267 14.6379C211.355 14.5512 211.443 14.5079 211.575 14.5079H215.972C216.104 14.5079 216.192 14.5512 216.28 14.6379C216.368 14.7245 216.412 14.8111 216.412 14.941V39.8426C216.412 39.9725 216.368 40.0591 216.28 40.1457C216.192 40.2323 216.104 40.2757 215.972 40.2757H211.575C211.443 40.319 211.355 40.2757 211.267 40.189Z" fill="white"/>
<path d="M237.868 14.6379C237.956 14.7245 238 14.8111 238 14.941V18.5355C238 18.6654 237.956 18.752 237.868 18.8386C237.78 18.9253 237.692 18.9686 237.56 18.9686H232.9C232.768 18.9686 232.724 19.0119 232.724 19.1418V39.8426C232.724 39.9725 232.68 40.0591 232.592 40.1457C232.504 40.2323 232.416 40.2757 232.284 40.2757H227.887C227.755 40.2757 227.668 40.2323 227.58 40.1457C227.492 40.0591 227.448 39.9725 227.448 39.8426V19.1418C227.448 19.0119 227.404 18.9686 227.272 18.9686H222.787C222.655 18.9686 222.567 18.9253 222.479 18.8386C222.391 18.752 222.347 18.6654 222.347 18.5355V14.941C222.347 14.8111 222.391 14.7245 222.479 14.6379C222.567 14.5512 222.655 14.5079 222.787 14.5079H237.604C237.692 14.5079 237.78 14.5512 237.868 14.6379Z" fill="white"/>
</g>
<defs>
<clipPath id="clip0_55_6049">
<rect width="238" height="55" fill="white"/>
</clipPath>
</defs>
</svg>
