<svg width="263" height="34" viewBox="0 0 263 34" fill="none" xmlns="http://www.w3.org/2000/svg">
<g clip-path="url(#clip0_5488_11462)">
<path d="M227.759 12.6634H232.824C232.762 12.7109 232.694 12.7527 232.628 12.7973C232.538 12.8577 232.477 12.9628 232.403 13.047C232.494 13.1053 232.58 13.1722 232.674 13.2211C232.848 13.3118 233.028 13.3895 233.204 13.4766C233.702 13.7227 234.159 13.6004 234.598 13.3154C234.643 13.2859 234.671 13.2283 234.707 13.1837C234.645 13.142 234.588 13.0736 234.521 13.0628C234.21 13.0139 233.898 12.9563 233.585 12.9484C233.285 12.9412 233.186 12.8412 233.212 12.6627H241.066L243.063 6.54169C243.242 6.59135 243.287 6.43735 243.298 5.90987C243.298 5.91059 243.292 5.89116 243.284 5.86454L244.889 0.943827L245.034 0.500545L245.178 0.0579834L245.319 0.489751L245.492 1.02226L249.17 12.2928C248.98 12.4512 248.803 12.6289 248.63 12.8074C248.597 12.8412 248.578 12.9189 248.592 12.9628C248.606 13.0053 248.671 13.0312 248.748 13.0916C248.96 12.9513 249.169 12.811 249.373 12.6634H255.011C255.045 12.7088 255.076 12.757 255.108 12.8052C255.145 12.757 255.181 12.7109 255.219 12.6634H262.598L261.132 13.7234C261.118 13.6889 261.105 13.6529 261.091 13.6184C261.057 13.6889 261.025 13.7565 260.991 13.8256L251.831 20.4532L255.456 31.5619C255.394 31.6195 255.334 31.6749 255.266 31.7382C255.411 31.8742 255.488 31.9455 255.564 32.0167C255.573 32.0009 255.581 31.985 255.59 31.9699L255.945 33.0587L245.944 25.8223C245.95 25.8187 245.955 25.8136 245.961 25.81C245.925 25.7676 245.891 25.6899 245.854 25.6892C245.831 25.6892 245.804 25.6971 245.779 25.7021L245.18 25.2689L244.624 25.6712C244.571 25.6301 244.517 25.5884 244.43 25.5222C244.292 25.6388 244.17 25.7417 244.048 25.8446C244.112 25.8791 244.195 25.959 244.234 25.9403C244.271 25.923 244.304 25.8993 244.338 25.8784L234.413 33.0594L238.526 20.4547L227.759 12.6642L227.759 12.6634ZM258.767 14.1084C258.944 13.9422 259.109 13.7608 259.276 13.5831C259.184 13.5277 259.051 13.4025 259.009 13.4291C258.834 13.5406 258.685 13.6975 258.479 13.8796C258.639 14.0084 258.757 14.1178 258.767 14.1084ZM257.514 14.053C257.617 13.9386 257.72 13.8242 257.847 13.6817C257.749 13.5737 257.66 13.4608 257.651 13.4665C257.517 13.5622 257.394 13.6731 257.268 13.781C257.35 13.8717 257.432 13.9623 257.514 14.0523L257.514 14.053ZM255.434 14.7223C255.454 14.6748 255.498 14.6201 255.488 14.5798C255.444 14.3991 255.384 14.2221 255.331 14.0444C255.274 14.0861 255.217 14.1271 255.13 14.1905C255.243 14.3876 255.338 14.5553 255.434 14.723V14.7223ZM254.474 16.5659C254.657 16.45 254.845 16.3371 255.01 16.1975C255.071 16.1464 255.114 16.0068 255.089 15.9362C255.063 15.8664 254.923 15.7736 254.866 15.7938C254.625 15.8758 254.393 15.9888 254.167 16.1082C254.113 16.1363 254.094 16.2334 254.071 16.2766C254.158 16.4896 254.182 16.7508 254.474 16.5659ZM253.235 17.1423C253.306 17.0552 253.372 17.0085 253.365 16.9768C253.344 16.8674 253.298 16.7631 253.261 16.6573C253.208 16.6976 253.106 16.7458 253.11 16.7782C253.126 16.8861 253.178 16.989 253.235 17.1423H253.235ZM243.547 8.39038C243.466 8.5084 243.395 8.57028 243.381 8.64368C243.372 8.69334 243.443 8.75882 243.479 8.81711C243.543 8.74875 243.622 8.6883 243.665 8.60842C243.68 8.58036 243.611 8.50336 243.547 8.38966L243.547 8.39038ZM244.138 8.36447C244.304 8.23854 244.49 8.09534 244.572 7.91256C244.632 7.77943 244.568 7.56498 244.506 7.40883C244.488 7.36421 244.207 7.3527 244.179 7.40307C244.059 7.62111 243.988 7.86722 243.875 8.16514C243.956 8.22847 244.11 8.38462 244.137 8.36447H244.138ZM243.882 12.8354C243.912 12.9801 243.971 13.119 244.045 13.3363C244.135 13.1981 244.224 13.1154 244.208 13.0772C244.151 12.9383 244.06 12.8138 243.982 12.6843C243.946 12.7354 243.874 12.7944 243.883 12.8354H243.882ZM244.541 12.0179C244.664 12.0849 244.781 12.1712 244.912 12.2086C244.958 12.2216 245.037 12.1137 245.102 12.0611C244.987 12.0201 244.872 11.9791 244.755 11.9374C244.672 11.9683 244.607 11.9935 244.54 12.0179H244.541ZM244.709 4.99237C244.518 4.96214 244.415 4.54837 244.188 4.81175C244.018 5.00676 243.879 5.28597 244.136 5.56086C244.186 5.61411 244.178 5.72493 244.195 5.80913C244.215 5.90987 244.232 6.01134 244.251 6.11281C244.313 6.00342 244.379 5.89692 244.432 5.78394C244.445 5.75804 244.411 5.70982 244.389 5.63786C244.32 5.38672 244.474 5.2723 244.714 5.20825C244.78 5.19026 244.836 5.13557 244.897 5.09815C244.834 5.06145 244.775 5.00316 244.708 4.99309L244.709 4.99237ZM244.806 9.75548C244.878 9.90013 244.969 10.0347 245.136 10.3045C245.197 10.1434 245.25 10.07 245.232 10.0397C245.144 9.89149 245.037 9.75548 244.938 9.61444C244.891 9.66265 244.797 9.73534 244.807 9.75477L244.806 9.75548ZM245.977 7.17064C245.964 7.01376 245.928 6.85113 245.867 6.70793C245.836 6.63596 245.721 6.55681 245.649 6.56184C245.59 6.56616 245.539 6.6885 245.526 6.70577C245.487 7.04398 245.799 7.34406 245.426 7.56714C245.414 7.57434 245.407 7.58801 245.398 7.59809C245.435 7.60384 245.473 7.60744 245.51 7.6168C245.758 7.68228 246.137 7.88305 246.229 7.7895C246.491 7.52325 245.997 7.42322 245.977 7.17136L245.977 7.17064ZM250.891 25.071C250.91 25.0847 251.081 24.9494 251.072 24.9184C251.037 24.8047 250.955 24.7069 250.862 24.5565C250.76 24.6752 250.64 24.7738 250.655 24.804C250.706 24.9091 250.796 25.0026 250.891 25.071ZM249.662 16.6559C249.815 16.7005 250.09 16.7573 250.126 16.6954C250.351 16.3061 250.525 15.8844 250.741 15.4203C250.607 15.2152 250.513 14.9281 250.388 14.9137C250.228 14.8957 249.963 15.0554 249.886 15.2116C249.696 15.6016 249.577 16.0305 249.454 16.4515C249.441 16.4975 249.576 16.6314 249.662 16.6559H249.662ZM249.214 15.0929C249.308 15.0202 249.371 14.9065 249.446 14.8079C249.373 14.7712 249.289 14.6927 249.229 14.7086C249.138 14.7323 249.064 14.823 248.941 14.9165C249.071 15.0029 249.19 15.1116 249.214 15.0929H249.214ZM248.73 21.3355C248.779 21.3398 248.834 21.2621 248.888 21.2211C248.838 21.1664 248.789 21.1124 248.708 21.0239C248.643 21.1059 248.6 21.1592 248.558 21.2124C248.615 21.2563 248.67 21.3297 248.73 21.3355ZM248.654 15.4304C248.601 15.2728 248.582 15.0864 248.486 14.9655C248.37 14.8216 248.196 14.7187 248.03 14.6316C247.98 14.605 247.873 14.6906 247.71 14.7604C247.929 14.9532 248.078 15.1065 248.249 15.2296C248.37 15.3167 248.518 15.3641 248.654 15.4296V15.4304ZM247.878 20.4935C247.766 20.4468 247.655 20.3655 247.543 20.3647C247.465 20.364 247.386 20.472 247.307 20.531C247.395 20.6159 247.483 20.7008 247.62 20.8332C247.732 20.6857 247.805 20.5893 247.877 20.4935H247.878ZM246.297 25.0372C246.751 25.6179 246.935 25.6093 247.367 25.0242C247.399 24.9811 247.438 24.9235 247.434 24.876C247.409 24.5867 247.383 24.2967 247.334 24.011C247.316 23.9103 247.229 23.8218 247.149 23.6822C247.066 23.7793 246.974 23.8419 246.983 23.8829C247.047 24.1888 246.974 24.2564 246.651 24.2219C246.484 24.2039 246.247 24.4046 246.128 24.5709C246.074 24.6472 246.196 24.9077 246.297 25.0365L246.297 25.0372ZM245.975 12.2633C246.045 12.4029 246.142 12.5289 246.229 12.6598C246.268 12.6016 246.354 12.5246 246.341 12.4886C246.282 12.3367 246.194 12.1971 246.057 11.9431C246.004 12.1381 245.953 12.2202 245.975 12.2633ZM246.278 11.1868C246.562 11.076 246.839 10.9443 247.047 10.8536C247.547 11.0932 247.621 10.6262 247.878 10.5363C247.854 10.4859 247.836 10.3967 247.805 10.3909C247.417 10.3261 247.019 10.306 246.642 10.2031C246.493 10.1621 246.336 9.96489 246.278 9.80298C246.169 9.50362 246.15 9.17116 246.055 8.86532C245.928 8.45371 245.662 8.37671 245.379 8.66239C245.307 8.73579 245.25 8.9193 245.29 8.99845C245.414 9.246 245.572 9.48059 245.743 9.69792C246.09 10.1376 246.05 10.4521 245.593 10.7579C245.495 10.8234 245.42 10.922 245.328 10.9954C245.227 11.0753 245.116 11.1429 245.01 11.2156C245.159 11.3005 245.317 11.4696 245.453 11.4531C245.735 11.4178 246.008 11.2933 246.279 11.1875L246.278 11.1868ZM245.237 24.3744C245.361 24.3039 245.482 24.2226 245.594 24.1326C245.609 24.1197 245.578 24.0434 245.568 23.9959C245.423 24.083 245.278 24.17 245.104 24.2744C245.164 24.3204 245.22 24.3838 245.237 24.3737L245.237 24.3744ZM245.332 14.0545C245.42 13.9559 245.561 13.7911 245.531 13.7234C245.477 13.6004 245.318 13.4665 245.193 13.455C245.109 13.4478 244.979 13.6299 244.923 13.7529C244.878 13.8508 244.914 13.9875 244.914 14.107C244.907 14.107 244.901 14.107 244.893 14.107C244.901 14.2056 244.908 14.3034 244.915 14.402C244.971 14.3344 245.019 14.2545 245.086 14.2005C245.161 14.1408 245.271 14.1221 245.332 14.0537V14.0545ZM243.809 21.3377C244.098 21.406 244.43 21.1117 244.443 20.7195C244.417 20.7001 244.286 20.5741 244.266 20.5907C244.033 20.7821 243.508 20.4353 243.505 20.998C243.505 21.1153 243.684 21.3074 243.809 21.3369V21.3377ZM243.308 19.163C243.908 19.1407 244.369 19.0738 244.712 18.6924C244.83 18.5614 244.958 18.4239 245.022 18.2649C245.067 18.1548 245.054 17.9627 244.984 17.8814C244.933 17.8223 244.745 17.8727 244.622 17.8986C244.456 17.9332 244.297 18.0138 244.13 18.0332C243.794 18.0721 243.245 18.5686 243.21 18.9234C243.2 19.0176 243.291 19.122 243.309 19.163H243.308ZM242.676 21.3074C242.755 21.2376 242.807 21.1347 242.87 21.0448C242.817 21.034 242.751 20.998 242.715 21.0181C242.623 21.0692 242.545 21.1448 242.377 21.2786C242.55 21.2988 242.642 21.3369 242.677 21.3074H242.676ZM242.019 13.5032C242.079 13.4557 242.14 13.4082 242.2 13.3607C242.216 13.3219 242.255 13.2528 242.247 13.2478C242.146 13.1693 242.038 13.0995 241.929 13.0326C241.927 13.0319 241.87 13.0938 241.877 13.1139C241.919 13.2456 241.97 13.3737 242.019 13.5032ZM235.229 15.6873C235.153 15.7822 235.099 15.8506 235.044 15.9182C235.105 15.9485 235.178 16.0168 235.224 16.001C235.295 15.9773 235.348 15.8959 235.408 15.8391C235.356 15.7952 235.305 15.7513 235.229 15.6873ZM237.656 15.0331C237.551 15.0871 237.483 15.2159 237.398 15.3116C237.507 15.272 237.614 15.231 237.724 15.1943C237.867 15.1468 238.009 15.0986 238.153 15.0598C238.244 15.0353 238.34 15.0274 238.433 15.0123C238.328 14.9784 238.222 14.9439 238.135 14.9165C237.955 14.9568 237.791 14.9648 237.656 15.0338V15.0331ZM238.348 13.5068C238.319 13.4672 238.246 13.4608 238.193 13.4392C238.205 13.5025 238.204 13.5723 238.23 13.6284C238.285 13.7486 238.361 13.8594 238.415 13.9803C238.445 14.0465 238.448 14.125 238.463 14.1977C238.498 14.1084 238.533 14.0192 238.585 13.8853C238.51 13.7637 238.437 13.6284 238.347 13.5061L238.348 13.5068ZM240.42 19.979C240.461 19.992 240.531 19.9107 240.588 19.8718C240.487 19.8034 240.386 19.7351 240.306 19.6811C240.16 19.725 240.07 19.7523 239.979 19.779C240.125 19.8481 240.268 19.9287 240.419 19.9783L240.42 19.979ZM238.627 27.9264C238.746 27.7415 238.874 27.5609 238.976 27.3673C239.001 27.3205 238.942 27.2284 238.893 27.0521C238.641 27.3291 238.484 27.4393 238.429 27.5889C238.4 27.6645 238.555 27.812 238.627 27.9264H238.627ZM238.414 24.899C238.522 25.0264 238.642 25.1437 238.799 25.3027C238.872 25.1818 238.945 25.0811 238.935 25.0717C238.812 24.9551 238.68 24.8486 238.541 24.7522C238.534 24.7472 238.408 24.8918 238.414 24.899Z" fill="#2B364B"/>
<path d="M184.226 12.6627L187.55 2.473C187.541 2.54568 187.551 2.62988 187.581 2.67665C187.675 2.8177 187.819 2.92348 187.942 3.04438C188.014 2.92204 188.086 2.80043 188.169 2.65866C188.078 2.47516 188.005 2.3262 187.932 2.17652C187.812 2.23769 187.667 2.27511 187.584 2.3701C187.584 2.3701 187.584 2.3701 187.584 2.37082L188.338 0.0579834L189.308 3.02998C189.268 3.09979 189.234 3.15808 189.205 3.2178C189.2 3.2286 189.282 3.28473 189.324 3.31999C189.343 3.29624 189.36 3.27177 189.379 3.24803L192.451 12.6634H205.759L201.967 15.4066C201.979 15.2137 202.043 15.0245 202.181 14.836C202.205 14.8028 202.118 14.6496 202.05 14.597C202.022 14.5747 201.858 14.651 201.841 14.7086C201.755 14.9957 201.233 15.095 201.533 15.5124C201.521 15.5951 201.508 15.6721 201.495 15.7484L197.594 18.5707C197.795 18.4024 198.068 17.9929 198.015 17.8375C197.951 17.6504 197.749 17.5129 197.668 17.423C197.27 17.4467 196.872 17.9634 196.971 18.2433C197.031 18.4139 197.253 18.5563 197.434 18.6398C197.469 18.6557 197.526 18.6269 197.592 18.5729L194.993 20.4532L199.105 33.058L188.339 25.2675L177.573 33.058L179.212 28.0322C179.218 28.0387 179.223 28.043 179.228 28.0495C179.301 27.9387 179.361 27.8674 179.389 27.7854C179.394 27.7731 179.356 27.735 179.319 27.7062L181.686 20.4532L170.92 12.6627H184.228H184.226ZM202.613 13.5752C202.66 13.5867 202.727 13.5126 202.785 13.4759C202.743 13.4068 202.701 13.3377 202.631 13.2226C202.553 13.3183 202.474 13.3766 202.481 13.4183C202.492 13.4795 202.558 13.5615 202.613 13.5752ZM194.601 19.8078C194.656 19.6746 194.703 19.5926 194.718 19.5048C194.723 19.4775 194.641 19.4343 194.599 19.3983C194.557 19.4775 194.503 19.553 194.479 19.6379C194.47 19.6667 194.534 19.7178 194.601 19.8078ZM194.182 16.6235C194.284 16.6156 194.384 16.5731 194.485 16.545C194.432 16.5047 194.38 16.4335 194.323 16.4299C194.22 16.4234 194.114 16.4558 193.87 16.4947C194.062 16.5781 194.124 16.6292 194.182 16.6242V16.6235ZM190.144 11.5754C190.088 11.6121 189.982 11.6524 189.984 11.6848C189.992 11.7884 190.039 11.8891 190.101 12.087C190.179 11.9417 190.237 11.8819 190.233 11.828C190.226 11.7416 190.176 11.6596 190.143 11.5754H190.144ZM190.035 17.6755C190.126 17.7238 190.213 17.79 190.311 17.8123C190.353 17.8216 190.414 17.741 190.466 17.7014C190.371 17.6201 190.284 17.5187 190.175 17.4654C190.124 17.4402 190.03 17.5064 189.956 17.5316C189.982 17.5798 190.008 17.6273 190.035 17.6755ZM189.42 7.94926C189.525 7.74992 189.64 7.55491 189.724 7.34694C189.739 7.31024 189.619 7.21741 189.476 7.05334C189.385 7.316 189.299 7.48007 189.278 7.65278C189.267 7.74417 189.369 7.84995 189.42 7.94926ZM186.818 23.1014C186.882 22.9467 186.942 22.7906 187.005 22.6301C186.948 22.5301 186.906 22.4567 186.865 22.3825C186.831 22.4502 186.773 22.5149 186.768 22.5847C186.753 22.7531 186.763 22.9237 186.767 23.0935C186.767 23.0964 186.817 23.105 186.819 23.1007L186.818 23.1014ZM179.813 29.0123C179.746 29.2181 179.694 29.3383 179.676 29.4635C179.672 29.4973 179.776 29.5463 179.831 29.588C179.88 29.5017 179.962 29.4175 179.97 29.3268C179.976 29.252 179.896 29.1692 179.813 29.0123ZM180.937 13.9659C180.935 13.9228 180.817 13.8422 180.777 13.8566C180.718 13.8774 180.684 13.9681 180.605 14.0739C180.705 14.1091 180.784 14.1653 180.825 14.1444C180.881 14.1156 180.94 14.0257 180.937 13.9659H180.937Z" fill="#2B364B"/>
<path d="M127.386 12.6627L130.711 2.473C130.702 2.54568 130.712 2.62988 130.742 2.67665C130.836 2.8177 130.98 2.92348 131.103 3.04438C131.175 2.92204 131.246 2.80043 131.33 2.65866C131.239 2.47516 131.165 2.3262 131.093 2.17652C130.973 2.23769 130.828 2.27511 130.745 2.3701C130.745 2.3701 130.745 2.3701 130.745 2.37082L131.499 0.0579834L132.469 3.02998C132.429 3.09979 132.395 3.15808 132.366 3.2178C132.361 3.2286 132.443 3.28473 132.485 3.31999C132.504 3.29624 132.521 3.27177 132.54 3.24803L135.611 12.6634H148.92L145.128 15.4066C145.14 15.2137 145.203 15.0245 145.342 14.836C145.366 14.8028 145.279 14.6496 145.211 14.597C145.182 14.5747 145.019 14.651 145.002 14.7086C144.916 14.9957 144.393 15.095 144.694 15.5124C144.682 15.5951 144.669 15.6721 144.656 15.7484L140.755 18.5707C140.955 18.4024 141.229 17.9929 141.176 17.8375C141.112 17.6504 140.91 17.5129 140.829 17.423C140.431 17.4467 140.033 17.9634 140.132 18.2433C140.192 18.4139 140.414 18.5563 140.595 18.6398C140.63 18.6557 140.687 18.6269 140.752 18.5729L138.154 20.4532L142.266 33.058L131.5 25.2675L120.734 33.058L122.373 28.0322C122.379 28.0387 122.383 28.043 122.389 28.0495C122.462 27.9387 122.522 27.8674 122.55 27.7854C122.555 27.7731 122.517 27.735 122.48 27.7062L124.847 20.4532L114.081 12.6627H127.389H127.386ZM145.774 13.5752C145.821 13.5867 145.888 13.5126 145.945 13.4759C145.904 13.4068 145.862 13.3377 145.792 13.2226C145.714 13.3183 145.635 13.3766 145.642 13.4183C145.653 13.4795 145.719 13.5615 145.774 13.5752ZM137.762 19.8078C137.817 19.6746 137.864 19.5926 137.879 19.5048C137.884 19.4775 137.801 19.4343 137.76 19.3983C137.718 19.4775 137.664 19.553 137.64 19.6379C137.631 19.6667 137.695 19.7178 137.762 19.8078ZM137.343 16.6235C137.445 16.6156 137.545 16.5731 137.646 16.545C137.593 16.5047 137.541 16.4335 137.484 16.4299C137.381 16.4234 137.275 16.4558 137.031 16.4947C137.223 16.5781 137.285 16.6292 137.343 16.6242V16.6235ZM133.305 11.5754C133.249 11.6121 133.142 11.6524 133.145 11.6848C133.153 11.7884 133.2 11.8891 133.262 12.087C133.34 11.9417 133.398 11.8819 133.394 11.828C133.387 11.7416 133.337 11.6596 133.304 11.5754H133.305ZM133.196 17.6755C133.287 17.7238 133.374 17.79 133.472 17.8123C133.514 17.8216 133.575 17.741 133.627 17.7014C133.532 17.6201 133.445 17.5187 133.336 17.4654C133.285 17.4402 133.191 17.5064 133.116 17.5316C133.143 17.5798 133.169 17.6273 133.196 17.6755ZM132.581 7.94926C132.686 7.74992 132.801 7.55491 132.885 7.34694C132.9 7.31024 132.78 7.21741 132.637 7.05334C132.546 7.316 132.46 7.48007 132.439 7.65278C132.428 7.74417 132.53 7.84995 132.581 7.94926ZM129.979 23.1014C130.043 22.9467 130.103 22.7906 130.165 22.6301C130.109 22.5301 130.067 22.4567 130.026 22.3825C129.992 22.4502 129.934 22.5149 129.928 22.5847C129.914 22.7531 129.924 22.9237 129.928 23.0935C129.928 23.0964 129.978 23.105 129.98 23.1007L129.979 23.1014ZM122.974 29.0123C122.907 29.2181 122.855 29.3383 122.837 29.4635C122.833 29.4973 122.937 29.5463 122.992 29.588C123.041 29.5017 123.123 29.4175 123.131 29.3268C123.137 29.252 123.057 29.1692 122.974 29.0123ZM124.098 13.9659C124.096 13.9228 123.977 13.8422 123.938 13.8566C123.879 13.8774 123.844 13.9681 123.766 14.0739C123.865 14.1091 123.945 14.1653 123.985 14.1444C124.042 14.1156 124.101 14.0257 124.097 13.9659H124.098Z" fill="#2B364B"/>
<path d="M70.5475 12.6627L73.872 2.473C73.8633 2.54568 73.8727 2.62988 73.9031 2.67665C73.997 2.8177 74.1408 2.92348 74.2644 3.04438C74.3359 2.92204 74.4074 2.80043 74.4905 2.65866C74.4002 2.47516 74.3265 2.3262 74.2535 2.17652C74.1343 2.23769 73.9891 2.27511 73.906 2.3701C73.906 2.3701 73.906 2.3701 73.906 2.37082L74.6603 0.0579834L75.63 3.02998C75.5895 3.09979 75.5563 3.15808 75.5274 3.2178C75.5223 3.2286 75.604 3.28473 75.6459 3.31999C75.6647 3.29624 75.682 3.27177 75.7008 3.24803L78.7724 12.6634H92.0806L88.2893 15.4066C88.3008 15.2137 88.3644 15.0245 88.5032 14.836C88.527 14.8028 88.4403 14.6496 88.3724 14.597C88.3435 14.5747 88.1802 14.651 88.1628 14.7086C88.0769 14.9957 87.5544 15.095 87.855 15.5124C87.8427 15.5951 87.8297 15.6721 87.8167 15.7484L83.9163 18.5707C84.1165 18.4024 84.3903 17.9929 84.3369 17.8375C84.2726 17.6504 84.071 17.5129 83.99 17.423C83.5919 17.4467 83.1938 17.9634 83.2928 18.2433C83.3527 18.4139 83.5746 18.5563 83.7559 18.6398C83.7906 18.6557 83.8477 18.6269 83.9135 18.5729L81.3151 20.4532L85.4272 33.058L74.661 25.2675L63.8949 33.058L65.5344 28.0322C65.5401 28.0387 65.5445 28.043 65.5503 28.0495C65.6225 27.9387 65.6832 27.8674 65.7114 27.7854C65.7157 27.7731 65.6782 27.735 65.6413 27.7062L68.0077 20.4532L57.2415 12.6627H70.5497H70.5475ZM88.9353 13.5752C88.9822 13.5867 89.0487 13.5126 89.1065 13.4759C89.0646 13.4068 89.0227 13.3377 88.9526 13.2226C88.8753 13.3183 88.7958 13.3766 88.803 13.4183C88.8139 13.4795 88.8796 13.5615 88.9353 13.5752ZM80.9228 19.8078C80.9777 19.6746 81.0247 19.5926 81.0398 19.5048C81.0449 19.4775 80.9625 19.4343 80.9206 19.3983C80.8787 19.4775 80.8252 19.553 80.8007 19.6379C80.792 19.6667 80.8556 19.7178 80.9228 19.8078ZM80.5037 16.6235C80.6063 16.6156 80.706 16.5731 80.8072 16.545C80.7537 16.5047 80.7017 16.4335 80.6453 16.4299C80.542 16.4234 80.4358 16.4558 80.1915 16.4947C80.3837 16.5781 80.4459 16.6292 80.5037 16.6242V16.6235ZM76.466 11.5754C76.4096 11.6121 76.3034 11.6524 76.3056 11.6848C76.3135 11.7884 76.3612 11.8891 76.4234 12.087C76.5007 11.9417 76.5592 11.8819 76.5549 11.828C76.5477 11.7416 76.4978 11.6596 76.4653 11.5754H76.466ZM76.3569 17.6755C76.4479 17.7238 76.5354 17.79 76.6329 17.8123C76.6748 17.8216 76.7362 17.741 76.7883 17.7014C76.6929 17.6201 76.6062 17.5187 76.4971 17.4654C76.4458 17.4402 76.3518 17.5064 76.2774 17.5316C76.3042 17.5798 76.3302 17.6273 76.3569 17.6755ZM75.742 7.94926C75.8468 7.74992 75.9624 7.55491 76.0462 7.34694C76.0606 7.31024 75.9407 7.21741 75.7984 7.05334C75.7066 7.316 75.6206 7.48007 75.5997 7.65278C75.5888 7.74417 75.6907 7.84995 75.742 7.94926ZM73.14 23.1014C73.2036 22.9467 73.2636 22.7906 73.3265 22.6301C73.2701 22.5301 73.2282 22.4567 73.187 22.3825C73.1531 22.4502 73.0953 22.5149 73.0895 22.5847C73.075 22.7531 73.0851 22.9237 73.0887 23.0935C73.0887 23.0964 73.1393 23.105 73.1408 23.1007L73.14 23.1014ZM66.1348 29.0123C66.0683 29.2181 66.0156 29.3383 65.9982 29.4635C65.9939 29.4973 66.098 29.5463 66.1529 29.588C66.202 29.5017 66.2837 29.4175 66.2916 29.3268C66.2981 29.252 66.2179 29.1692 66.1348 29.0123ZM67.2591 13.9659C67.2569 13.9228 67.1384 13.8422 67.0987 13.8566C67.0402 13.8774 67.0055 13.9681 66.9267 14.0739C67.0265 14.1091 67.1059 14.1653 67.1464 14.1444C67.2028 14.1156 67.262 14.0257 67.2584 13.9659H67.2591Z" fill="#2B364B"/>
<path d="M13.7084 12.6627L17.0329 2.473C17.0242 2.54568 17.0336 2.62988 17.064 2.67665C17.1579 2.8177 17.3017 2.92348 17.4252 3.04438C17.4968 2.92204 17.5683 2.80043 17.6514 2.65866C17.5611 2.47516 17.4874 2.3262 17.4144 2.17652C17.2952 2.23769 17.15 2.27511 17.0669 2.3701C17.0669 2.3701 17.0669 2.3701 17.0669 2.37082L17.8212 0.0579834L18.7909 3.02998C18.7504 3.09979 18.7172 3.15808 18.6883 3.2178C18.6832 3.2286 18.7649 3.28473 18.8068 3.31999C18.8256 3.29624 18.8429 3.27177 18.8617 3.24803L21.9333 12.6634H35.2415L31.4502 15.4066C31.4617 15.2137 31.5253 15.0245 31.664 14.836C31.6879 14.8028 31.6012 14.6496 31.5333 14.597C31.5044 14.5747 31.3411 14.651 31.3237 14.7086C31.2377 14.9957 30.7153 15.095 31.0159 15.5124C31.0036 15.5951 30.9906 15.6721 30.9776 15.7484L27.0772 18.5707C27.2774 18.4024 27.5512 17.9929 27.4978 17.8375C27.4335 17.6504 27.2319 17.5129 27.1509 17.423C26.7528 17.4467 26.3547 17.9634 26.4537 18.2433C26.5136 18.4139 26.7355 18.5563 26.9168 18.6398C26.9515 18.6557 27.0086 18.6269 27.0743 18.5729L24.476 20.4532L28.5881 33.058L17.8219 25.2675L7.05576 33.058L8.69525 28.0322C8.70103 28.0387 8.70537 28.043 8.71115 28.0495C8.78341 27.9387 8.8441 27.8674 8.87228 27.7854C8.87662 27.7731 8.83905 27.735 8.80219 27.7062L11.1686 20.4532L0.402412 12.6627H13.7106H13.7084ZM32.0961 13.5752C32.1431 13.5867 32.2096 13.5126 32.2674 13.4759C32.2255 13.4068 32.1836 13.3377 32.1135 13.2226C32.0362 13.3183 31.9567 13.3766 31.9639 13.4183C31.9748 13.4795 32.0405 13.5615 32.0961 13.5752ZM24.0837 19.8078C24.1386 19.6746 24.1855 19.5926 24.2007 19.5048C24.2058 19.4775 24.1234 19.4343 24.0815 19.3983C24.0396 19.4775 23.9861 19.553 23.9615 19.6379C23.9529 19.6667 24.0165 19.7178 24.0837 19.8078ZM23.6646 16.6235C23.7672 16.6156 23.8669 16.5731 23.968 16.545C23.9146 16.5047 23.8625 16.4335 23.8062 16.4299C23.7029 16.4234 23.5967 16.4558 23.3524 16.4947C23.5446 16.5781 23.6068 16.6292 23.6646 16.6242V16.6235ZM19.6269 11.5754C19.5705 11.6121 19.4643 11.6524 19.4665 11.6848C19.4744 11.7884 19.5221 11.8891 19.5843 12.087C19.6616 11.9417 19.7201 11.8819 19.7158 11.828C19.7085 11.7416 19.6587 11.6596 19.6262 11.5754H19.6269ZM19.5178 17.6755C19.6088 17.7238 19.6963 17.79 19.7938 17.8123C19.8357 17.8216 19.8971 17.741 19.9492 17.7014C19.8538 17.6201 19.7671 17.5187 19.658 17.4654C19.6067 17.4402 19.5127 17.5064 19.4383 17.5316C19.465 17.5798 19.491 17.6273 19.5178 17.6755ZM18.9029 7.94926C19.0077 7.74992 19.1233 7.55491 19.2071 7.34694C19.2215 7.31024 19.1016 7.21741 18.9592 7.05334C18.8675 7.316 18.7815 7.48007 18.7605 7.65278C18.7497 7.74417 18.8516 7.84995 18.9029 7.94926ZM16.3009 23.1014C16.3645 22.9467 16.4245 22.7906 16.4874 22.6301C16.431 22.5301 16.3891 22.4567 16.3479 22.3825C16.3139 22.4502 16.2561 22.5149 16.2504 22.5847C16.2359 22.7531 16.246 22.9237 16.2496 23.0935C16.2496 23.0964 16.3002 23.105 16.3017 23.1007L16.3009 23.1014ZM9.2957 29.0123C9.22923 29.2181 9.17648 29.3383 9.15914 29.4635C9.1548 29.4973 9.25885 29.5463 9.31377 29.588C9.3629 29.5017 9.44455 29.4175 9.4525 29.3268C9.459 29.252 9.3788 29.1692 9.2957 29.0123ZM10.42 13.9659C10.4178 13.9228 10.2993 13.8422 10.2596 13.8566C10.2011 13.8774 10.1664 13.9681 10.0876 14.0739C10.1873 14.1091 10.2668 14.1653 10.3073 14.1444C10.3636 14.1156 10.4229 14.0257 10.4193 13.9659H10.42Z" fill="#2B364B"/>
</g>
<defs>
<clipPath id="clip0_5488_11462">
<rect width="262.195" height="33.0014" fill="white" transform="matrix(-1 0 0 1 262.598 0.0579834)"/>
</clipPath>
</defs>
</svg>
