<svg width="56" height="56" viewBox="0 0 56 56" fill="none" xmlns="http://www.w3.org/2000/svg">
<path d="M27.8142 0C12.4549 0 0 12.4549 0 27.8142C0 43.1736 12.4549 55.6284 27.8142 55.6284C43.1736 55.6284 55.6284 43.1736 55.6284 27.8142C55.6284 12.4549 43.1736 0 27.8142 0ZM37.7351 36.5002C37.0811 35.4436 35.8415 33.8473 33.5454 31.8393C30.6089 29.2733 29.2687 26.8217 28.3768 25.1979C28.139 24.7634 27.8325 24.2054 27.6221 23.9172C27.4117 24.2054 27.1053 24.7634 26.8674 25.1979C25.9801 26.8217 24.6353 29.2733 21.6988 31.8393C19.4027 33.8427 18.1677 35.439 17.5091 36.5002H12.3222C12.7385 35.1508 14.1061 32.2189 18.5977 28.2945C20.903 26.2819 21.9184 24.4295 22.7326 22.9384C23.2311 22.0282 23.6656 21.2369 24.2877 20.5691C25.1842 19.6085 26.3048 19.1237 27.613 19.1237C28.9211 19.1237 30.0417 19.6085 30.9382 20.5691C31.5649 21.2369 31.9948 22.0236 32.4934 22.9384C33.3075 24.4249 34.323 26.2774 36.6282 28.2945C41.1199 32.2189 42.4875 35.1508 42.9037 36.5002H37.7168H37.7351Z" fill="url(#paint0_linear_1174_25414)"/>
<defs>
<linearGradient id="paint0_linear_1174_25414" x1="0" y1="27.8142" x2="55.6284" y2="27.8142" gradientUnits="userSpaceOnUse">
<stop stop-color="#5A7DB2"/>
<stop offset="1" stop-color="#2A354B"/>
</linearGradient>
</defs>
</svg>
